<svg width="32" height="33" viewBox="0 0 32 33" fill="none" xmlns="http://www.w3.org/2000/svg">
<g id="Group">
<g id="Group_2">
<path id="Vector" fill-rule="evenodd" clip-rule="evenodd" d="M16 30.9C8.0472 30.9 1.6 24.4528 1.6 16.5C1.6 8.5472 8.0472 2.1 16 2.1C23.9528 2.1 30.4 8.5472 30.4 16.5C30.4 24.4528 23.9528 30.9 16 30.9ZM16 32.5C7.1632 32.5 -4.76837e-07 25.3368 -4.76837e-07 16.5C-4.76837e-07 7.6632 7.1632 0.5 16 0.5C24.8368 0.5 32 7.6632 32 16.5C32 25.3368 24.8368 32.5 16 32.5Z" fill="white"/>
<path id="Vector_2" d="M25.6 25.804C25.6 24.9776 24.9824 24.2792 24.16 24.188C17.988 23.5048 13.984 23.5664 7.82561 24.2032C7.51808 24.2355 7.22661 24.3567 6.9868 24.5519C6.747 24.7471 6.56923 25.0079 6.47522 25.3025C6.38121 25.5971 6.37503 25.9127 6.45743 26.2107C6.53982 26.5088 6.70723 26.7764 6.93921 26.9808C14.2072 33.316 18.3608 33.2288 25.088 26.9872C25.416 26.6832 25.6 26.2512 25.6 25.8048V25.804Z" fill="white"/>
<path id="Vector_3" fill-rule="evenodd" clip-rule="evenodd" d="M7.90799 24.9983C14.0176 24.3663 17.964 24.3071 24.0728 24.9831C24.2739 25.0065 24.4593 25.1033 24.5934 25.2549C24.7276 25.4065 24.8012 25.6022 24.8 25.8047C24.8 26.0335 24.7048 26.2503 24.544 26.4007C21.2096 29.4935 18.6832 30.8911 16.2136 30.8999C13.7352 30.9087 11.0728 29.5223 7.46479 26.3783C7.35017 26.2763 7.26765 26.1431 7.22727 25.9951C7.18689 25.847 7.19038 25.6905 7.23733 25.5444C7.28428 25.3983 7.37265 25.269 7.49171 25.1722C7.61077 25.0754 7.75539 25.0152 7.90799 24.9991V24.9983ZM24.248 23.3927C18.0112 22.7023 13.9488 22.7647 7.74239 23.4071C7.27975 23.4554 6.84122 23.6375 6.4805 23.9312C6.11978 24.2249 5.85251 24.6173 5.71141 25.0606C5.57032 25.5038 5.56152 25.9786 5.68609 26.4267C5.81066 26.8749 6.0632 27.277 6.41279 27.5839C10.0728 30.7743 13.1208 32.5119 16.2184 32.4999C19.3248 32.4887 22.2384 30.7215 25.6312 27.5735C25.8741 27.3472 26.0678 27.0733 26.2 26.7688C26.3323 26.4643 26.4004 26.1358 26.4 25.8039C26.4012 25.2074 26.1822 24.6315 25.7851 24.1864C25.388 23.7414 24.8407 23.4585 24.248 23.3919V23.3927Z" fill="white"/>
<path id="Vector_4" d="M9.59999 13.2999C9.59999 14.9973 10.2743 16.6252 11.4745 17.8254C12.6747 19.0256 14.3026 19.6999 16 19.6999C17.6974 19.6999 19.3252 19.0256 20.5255 17.8254C21.7257 16.6252 22.4 14.9973 22.4 13.2999C22.4 11.6025 21.7257 9.97465 20.5255 8.77442C19.3252 7.57419 17.6974 6.8999 16 6.8999C14.3026 6.8999 12.6747 7.57419 11.4745 8.77442C10.2743 9.97465 9.59999 11.6025 9.59999 13.2999V13.2999Z" fill="white"/>
<path id="Vector_5" fill-rule="evenodd" clip-rule="evenodd" d="M16 18.0999C14.727 18.0999 13.5061 17.5942 12.6059 16.694C11.7057 15.7938 11.2 14.5729 11.2 13.2999C11.2 12.0269 11.7057 10.806 12.6059 9.90579C13.5061 9.00562 14.727 8.4999 16 8.4999C17.273 8.4999 18.4939 9.00562 19.3941 9.90579C20.2943 10.806 20.8 12.0269 20.8 13.2999C20.8 14.5729 20.2943 15.7938 19.3941 16.694C18.4939 17.5942 17.273 18.0999 16 18.0999V18.0999ZM16 19.6999C14.3026 19.6999 12.6747 19.0256 11.4745 17.8254C10.2743 16.6252 9.59999 14.9973 9.59999 13.2999C9.59999 11.6025 10.2743 9.97465 11.4745 8.77442C12.6747 7.57419 14.3026 6.8999 16 6.8999C17.6974 6.8999 19.3252 7.57419 20.5255 8.77442C21.7257 9.97465 22.4 11.6025 22.4 13.2999C22.4 14.9973 21.7257 16.6252 20.5255 17.8254C19.3252 19.0256 17.6974 19.6999 16 19.6999V19.6999Z" fill="white"/>
</g>
</g>
</svg>
