<svg width="23" height="24" viewBox="0 0 23 24" fill="none" xmlns="http://www.w3.org/2000/svg">
<g id="Group">
<path id="Vector" d="M0.880007 23.3333C0.74205 23.3327 0.60742 23.2909 0.49334 23.2133C0.405435 23.1521 0.333922 23.0703 0.285095 22.9749C0.236269 22.8796 0.211627 22.7737 0.21334 22.6666V3.99998C0.212387 3.86455 0.252704 3.73204 0.328924 3.62009C0.405145 3.50814 0.513653 3.42206 0.640007 3.37331L7.45334 0.706644C7.60881 0.652798 7.77787 0.652798 7.93334 0.706644L14.4 3.23998L22.12 0.706644C22.2121 0.678169 22.3095 0.67178 22.4045 0.687996C22.4995 0.704212 22.5893 0.742575 22.6667 0.799978C22.7511 0.860557 22.8195 0.94077 22.8659 1.03369C22.9124 1.12661 22.9355 1.22945 22.9333 1.33331V20C22.9343 20.1391 22.8909 20.2749 22.8094 20.3876C22.7278 20.5003 22.6124 20.5841 22.48 20.6266L14.48 23.2933C14.3335 23.3463 14.1731 23.3463 14.0267 23.2933L7.68001 20.7733L1.12001 23.2933C1.04267 23.3194 0.961636 23.333 0.880007 23.3333ZM7.68001 19.3333C7.76329 19.3135 7.85006 19.3135 7.93334 19.3333L14.28 21.8533L21.6533 19.36V2.25331L14.5867 4.57331C14.4402 4.62627 14.2798 4.62627 14.1333 4.57331L7.68001 2.05331L1.54667 4.39998V21.7333L7.45334 19.48C7.51853 19.428 7.59714 19.3957 7.68001 19.3866V19.3333Z" fill="white"/>
</g>
</svg>
